<svg width="100" height="40" viewBox="0 0 100 40" fill="none" xmlns="http://www.w3.org/2000/svg">
<path d="M100 0H0V40H100V0Z" fill="#EFC103"/>
<path d="M19.1228 36.1455C17.6491 36.3636 16.2386 36.4727 14.8912 36.4727C13.5438 36.4727 12.4386 36.0255 11.5754 35.1309C10.7123 34.2364 10.2807 33.0473 10.2807 31.5636V31.2364H9.33332C7.1228 31.2364 5.51227 30.7236 4.50174 29.6982C3.51227 28.6509 3.01753 26.9818 3.01753 24.6909V14.2182C3.01753 11.9273 3.51227 10.2691 4.50174 9.24364C5.51227 8.19637 7.1228 7.67273 9.33332 7.67273H17.2281C19.4386 7.67273 21.0386 8.19637 22.0281 9.24364C23.0386 10.2691 23.5438 11.9273 23.5438 14.2182V24.6909C23.5438 26.9818 23.0386 28.6509 22.0281 29.6982C21.0386 30.7236 19.4386 31.2364 17.2281 31.2364H15.6491V31.5636C15.6491 31.8909 15.7544 32.1636 15.9649 32.3818C16.1754 32.6 16.4386 32.7091 16.7544 32.7091H19.1228V36.1455ZM17.8596 14.2182C17.8596 12.9091 17.2281 12.2545 15.9649 12.2545H10.5965C9.33332 12.2545 8.70174 12.9091 8.70174 14.2182V24.6909C8.70174 26 9.33332 26.6545 10.5965 26.6545H15.9649C17.2281 26.6545 17.8596 26 17.8596 24.6909V14.2182ZM45.6638 18.1455L41.2428 26.3273H36.8217L32.4007 18.1455V30.9091H26.7165V8H32.7165L39.0323 20.1091L45.3481 8H51.3481V30.9091H45.6638V18.1455ZM67.4658 8C69.8447 8 71.6447 8.64364 72.8658 9.93091C74.1079 11.1964 74.7289 13.0618 74.7289 15.5273V23.3818C74.7289 25.8473 74.1079 27.7236 72.8658 29.0109C71.6447 30.2764 69.8447 30.9091 67.4658 30.9091H55.15V8H67.4658ZM69.0447 15.5273C69.0447 13.5636 68.0974 12.5818 66.2026 12.5818H60.8342V26.3273H66.2026C68.0974 26.3273 69.0447 25.3455 69.0447 23.3818V15.5273ZM88.7728 18.8C88.7728 18.4727 88.6675 18.2 88.457 17.9818C88.2465 17.7636 87.9833 17.6545 87.6675 17.6545H86.8781C85.9938 17.6545 85.2254 17.6982 84.5728 17.7855C83.9412 17.8727 83.4465 17.9382 83.0886 17.9818V26.4909H87.5096C88.3517 26.4909 88.7728 26.0545 88.7728 25.1818V18.8ZM83.0886 13.8909C85.1307 13.4545 86.9202 13.2364 88.457 13.2364H89.5623C90.9938 13.2364 92.1412 13.6836 93.0044 14.5782C93.8675 15.4727 94.2991 16.6618 94.2991 18.1455V25.6727C94.2991 27.3091 93.8465 28.5964 92.9412 29.5345C92.057 30.4509 90.8254 30.9091 89.2465 30.9091H77.5623V8H83.0886V13.8909Z" fill="black"/>
</svg>
