<svg width="48" height="48" viewBox="0 0 48 48" fill="none" xmlns="http://www.w3.org/2000/svg">
<path d="M47.4062 13.8311C48.0182 13.5245 48.1848 12.9034 47.7759 12.4444C47.3644 11.9814 46.5337 11.8604 45.9269 12.1671C44.4694 12.8959 42.8031 13.326 41.3188 13.5905C40.7617 12.7618 40.2116 11.9804 39.6853 11.2659C41.1443 10.5632 42.7106 9.99908 43.9998 9.99908C44.7368 9.99908 45.3332 9.55179 45.3332 8.99904C45.3332 8.44629 44.7368 7.99901 43.9998 7.99901C42.1261 7.99901 40.1188 8.6981 38.3626 9.52836C37.2752 8.1461 36.4015 7.13997 35.9972 6.68847C35.8826 1.48908 32.9373 0.233203 32.5962 0.104296C32.0832 -0.0851729 31.4608 -0.0128915 31.0571 0.291797C29.0961 1.76255 27.8201 3.2274 27.216 3.99896H20.7838C20.1796 3.22749 18.9035 1.76255 16.9427 0.291797C16.539 -0.0128915 15.9192 -0.0851729 15.4035 0.104296C15.0624 0.233203 12.117 1.48908 12.0025 6.68847C11.5983 7.14007 10.7247 8.14601 9.6373 9.52826C7.88118 8.69792 5.87381 7.99891 4.00007 7.99891C3.26307 7.99891 2.6667 8.4462 2.6667 8.99895C2.6667 9.5517 3.26307 9.99898 4.00007 9.99898C5.28657 9.99898 6.85344 10.5639 8.31356 11.2673C7.78718 11.9822 7.23668 12.7639 6.67931 13.593C5.19919 13.329 3.53582 12.8981 2.07308 12.1671C1.46633 11.8624 0.632958 11.9835 0.224085 12.4444C-0.184789 12.9034 -0.0181643 13.5245 0.593833 13.8311C2.16433 14.6161 3.90182 15.1127 5.48819 15.4321C2.65208 19.9986 8.55834e-05 25.6836 8.55834e-05 30.9995C8.55834e-05 39.3181 9.32293 46.4101 9.72143 46.707C9.8673 46.8164 10.0469 46.9004 10.2423 46.9492C10.4142 46.9922 14.5287 48 21.3334 48C21.6875 48 22.0261 47.8945 22.2761 47.707L23.2189 47H24.7814L25.7241 47.707C25.9741 47.8945 26.3126 48 26.6669 48C33.4716 48 37.5861 46.9922 37.7579 46.9492C37.9533 46.9003 38.1329 46.8163 38.2788 46.707C38.6771 46.4101 47.9999 39.3182 47.9999 30.9995C47.9999 25.6836 45.3479 19.9986 42.5118 15.4321C44.0982 15.1126 45.8357 14.6162 47.4062 13.8311ZM45.3333 31C45.3333 37.8086 38.0026 44.0059 36.6172 45.1172C35.6276 45.3261 32.2475 45.9551 27.2162 45.9981L26.2761 45.293C26.0261 45.1055 25.6876 45 25.3334 45H22.6668C22.3126 45 21.974 45.1055 21.724 45.293L20.7839 45.9981C15.7527 45.9551 12.3698 45.3261 11.3829 45.1172C9.99755 44.0097 2.66683 37.8242 2.66683 31C2.66683 25.8994 5.38807 20.2976 8.21206 15.8443C9.5983 15.9886 10.5725 15.9999 10.6668 15.9999C11.4038 15.9999 12.0002 15.5527 12.0002 14.9999C12.0002 14.4472 11.4038 13.9999 10.6668 13.9999C10.6522 13.9999 10.1754 13.9918 9.46368 13.9417C9.81943 13.4237 10.1684 12.9307 10.5098 12.4616C11.3067 12.9452 11.9814 13.4003 12.3908 13.7069C12.6512 13.9022 12.9924 13.9999 13.3335 13.9999C13.6747 13.9999 14.0158 13.9022 14.2763 13.7069C14.7972 13.3162 14.7972 12.6834 14.2763 12.2929C14.0515 12.1243 13.1318 11.4528 11.842 10.6899C13.3193 8.79054 14.3949 7.60676 14.4299 7.56822C14.5835 7.40219 14.6669 7.20297 14.6669 6.99982C14.6669 4.43734 15.4092 3.09156 15.9717 2.43727C17.8389 4.01931 18.7971 5.43147 18.8076 5.449C19.0339 5.785 19.4974 5.99988 20 5.99988H28C28.5026 5.99988 28.9661 5.785 29.1927 5.44909C29.2031 5.43147 30.1615 4.02137 32.0235 2.4413C32.599 3.10149 33.3333 4.44718 33.3333 6.99991C33.3333 7.20307 33.4167 7.40229 33.5703 7.56832C33.6053 7.60685 34.6815 8.79017 36.1593 10.6895C34.8691 11.4525 33.9487 12.1244 33.724 12.293C33.2031 12.6836 33.2031 13.3164 33.724 13.707C33.9843 13.9023 34.3256 14 34.6667 14C35.0078 14 35.349 13.9023 35.6095 13.707C36.0186 13.4001 36.6936 12.9441 37.491 12.4599C37.8322 12.9291 38.1816 13.422 38.5374 13.9401C37.8237 13.991 37.3454 14 37.3307 14C36.5963 14.0019 36 14.4492 36 15.002C36.0026 15.5527 36.5963 16 37.3333 16C37.4276 16 38.4032 15.9886 39.7903 15.8441C42.6136 20.2957 45.3333 25.8959 45.3333 31Z" fill="black"/>
<path d="M24.0001 16.0001C13.7085 16.0001 5.3335 22.2814 5.3335 30.0001C5.3335 37.7189 13.7085 44.0001 24.0001 44.0001C34.2916 44.0001 42.6666 37.7189 42.6666 30.0001C42.6666 22.2814 34.2916 16.0001 24.0001 16.0001ZM24.0001 42.0002C15.1772 42.0002 8.00011 36.6173 8.00011 30.0001C8.00011 23.383 15.1772 18.0001 24.0001 18.0001C32.8229 18.0001 40 23.383 40 30.0001C40 36.6173 32.8229 42.0002 24.0001 42.0002Z" fill="black"/>
<path d="M17.3335 11.9999C18.8049 11.9999 20.0001 11.1034 20.0001 9.99995C20.0001 9.44719 19.4037 8.99991 18.6667 8.99991C18.6667 8.44716 18.0704 7.99988 17.3334 7.99988C15.862 7.99988 14.6667 8.89641 14.6667 9.99985C14.6667 11.1035 15.8621 11.9999 17.3335 11.9999Z" fill="black"/>
<path d="M30.6664 11.9999C32.1377 11.9999 33.333 11.1034 33.333 9.99995C33.3331 9.44719 32.7367 8.99991 31.9997 8.99991C31.9997 8.44716 31.4034 7.99988 30.6664 7.99988C29.195 7.99988 27.9998 8.89641 27.9998 9.99985C27.9998 11.1035 29.1951 11.9999 30.6664 11.9999Z" fill="black"/>
<path d="M23.0571 13.7069C23.3175 13.9022 23.6587 13.9999 23.9998 13.9999C24.341 13.9999 24.6821 13.9022 24.9426 13.7069L26.276 12.7069C26.6562 12.4217 26.7707 11.9901 26.5651 11.617C26.3593 11.244 25.8723 10.9999 25.3333 10.9999H22.6667C22.1276 10.9999 21.6407 11.244 21.435 11.617C21.2292 11.9901 21.3439 12.4217 21.7241 12.7069L23.0571 13.7069Z" fill="black"/>
<path d="M27.2632 23.1053L24.5965 22.1052C24.2215 21.9646 23.7788 21.9646 23.4038 22.1052L20.7372 23.1053C20.0783 23.3533 19.8127 23.9529 20.1408 24.4471C20.4715 24.9393 21.2684 25.1425 21.9299 24.8944L24.0002 24.117L26.0705 24.8944C26.2633 24.9667 26.4664 24.9999 26.6669 24.9999C27.1539 24.9999 27.6253 24.7967 27.8596 24.4471C28.1876 23.9529 27.922 23.3533 27.2632 23.1053Z" fill="black"/>
<path d="M17.9299 26.1053L15.2633 25.1052C14.8883 24.9646 14.4455 24.9646 14.0705 25.1052L11.4039 26.1053C10.745 26.3533 10.4794 26.953 10.8075 27.4471C11.1383 27.9393 11.9352 28.1425 12.5967 27.8944L14.667 27.117L16.7374 27.8944C16.9302 27.9667 17.1333 27.9999 17.3338 27.9999C17.8208 27.9999 18.2921 27.7967 18.5265 27.4471C18.8543 26.953 18.5886 26.3533 17.9299 26.1053Z" fill="black"/>
<path d="M32.737 25.1056L30.0704 26.1056C29.4116 26.3537 29.1459 26.9533 29.4741 27.4475C29.8048 27.9397 30.6043 28.1428 31.2632 27.8948L33.3335 27.1174L35.4039 27.8948C35.5967 27.967 35.7998 28.0002 36.0003 28.0002C36.4873 28.0002 36.9587 27.7971 37.193 27.4475C37.5211 26.9533 37.2555 26.3537 36.5967 26.1056L33.93 25.1056C33.5548 24.965 33.112 24.965 32.737 25.1056Z" fill="black"/>
</svg>
