<svg width="40" height="40" viewBox="0 0 40 40" fill="none" xmlns="http://www.w3.org/2000/svg">
<path d="M39.5051 11.5259C40.0151 11.2704 40.154 10.7528 39.8133 10.3703C39.4703 9.98452 38.7781 9.88366 38.2724 10.1392C37.0579 10.7466 35.6692 11.105 34.4323 11.3254C33.9681 10.6348 33.5096 9.98366 33.0711 9.38827C34.2869 8.80264 35.5921 8.33256 36.6665 8.33256C37.2807 8.33256 37.7776 7.95983 37.7776 7.4992C37.7776 7.03857 37.2807 6.66584 36.6665 6.66584C35.105 6.66584 33.4323 7.24842 31.9688 7.9403C31.0627 6.78842 30.3345 5.94998 29.9977 5.57373C29.9021 1.2409 27.4478 0.194336 27.1635 0.0869136C26.736 -0.0709774 26.2174 -0.0107429 25.8809 0.243164C24.2468 1.46879 23.1834 2.6895 22.68 3.33247H17.3198C16.8164 2.68958 15.7529 1.46879 14.1189 0.243164C13.7825 -0.0107429 13.266 -0.0709774 12.8363 0.0869136C12.552 0.194336 10.0975 1.2409 10.0021 5.57373C9.66525 5.95006 8.93723 6.78834 8.03109 7.94022C6.56765 7.24826 4.89485 6.66576 3.33339 6.66576C2.71923 6.66576 2.22225 7.0385 2.22225 7.49912C2.22225 7.95975 2.71923 8.33248 3.33339 8.33248C4.40547 8.33248 5.7112 8.80327 6.92796 9.38944C6.48932 9.98515 6.03057 10.6366 5.56609 11.3275C4.33266 11.1075 2.94652 10.7484 1.72757 10.1392C1.22194 9.8853 0.527465 9.98624 0.186737 10.3703C-0.153991 10.7528 -0.0151369 11.2704 0.494861 11.5259C1.80361 12.1801 3.25152 12.5939 4.57349 12.8601C2.21006 16.6655 7.13195e-05 21.403 7.13195e-05 25.8329C7.13195e-05 32.7651 7.76911 38.6751 8.10119 38.9225C8.22275 39.0137 8.37244 39.0837 8.53525 39.1243C8.67848 39.1602 12.1072 40 17.7778 40C18.0729 40 18.3551 39.9121 18.5634 39.7559L19.3491 39.1666H20.6511L21.4368 39.7559C21.6451 39.9121 21.9272 40 22.2224 40C27.893 40 31.3217 39.1602 31.465 39.1243C31.6278 39.0836 31.7775 39.0136 31.899 38.9225C32.2309 38.6751 39.9999 32.7651 39.9999 25.8329C39.9999 21.403 37.7899 16.6655 35.4265 12.8601C36.7485 12.5938 38.1964 12.1802 39.5051 11.5259ZM37.7777 25.8333C37.7777 31.5072 31.6688 36.6716 30.5143 37.5977C29.6896 37.7718 26.8729 38.2959 22.6802 38.3317L21.8968 37.7441C21.6884 37.5879 21.4063 37.5 21.1111 37.5H18.889C18.5939 37.5 18.3117 37.5879 18.1033 37.7441L17.3199 38.3317C13.1272 38.2959 10.3082 37.7718 9.48577 37.5977C8.33129 36.6748 2.22235 31.5201 2.22235 25.8333C2.22235 21.5828 4.49006 16.9147 6.84338 13.2036C7.99858 13.3238 8.81046 13.3333 8.889 13.3333C9.50316 13.3333 10.0001 12.9605 10.0001 12.4999C10.0001 12.0393 9.50316 11.6666 8.889 11.6666C8.87681 11.6666 8.47952 11.6598 7.8864 11.6181C8.18285 11.1864 8.47369 10.7756 8.75817 10.3847C9.42223 10.7876 9.98452 11.1669 10.3257 11.4224C10.5426 11.5852 10.827 11.6666 11.1113 11.6666C11.3956 11.6666 11.6798 11.5852 11.8969 11.4224C12.331 11.0969 12.331 10.5695 11.8969 10.2441C11.7096 10.1036 10.9432 9.54397 9.86837 8.90827C11.0994 7.32545 11.9958 6.33896 12.0249 6.30685C12.1529 6.16849 12.2224 6.00248 12.2224 5.83318C12.2224 3.69778 12.841 2.5763 13.3097 2.03106C14.8657 3.34942 15.6643 4.52622 15.673 4.54083C15.8616 4.82083 16.2478 4.9999 16.6667 4.9999H23.3333C23.7522 4.9999 24.1384 4.82083 24.3273 4.54091C24.3359 4.52622 25.1346 3.35114 26.6862 2.03442C27.1658 2.58458 27.7778 3.70599 27.7778 5.83326C27.7778 6.00256 27.8473 6.16857 27.9753 6.30693C28.0044 6.33904 28.9012 7.32514 30.1328 8.90788C29.0576 9.54374 28.2906 10.1037 28.1033 10.2441C27.6692 10.5697 27.6692 11.097 28.1033 11.4225C28.3203 11.5852 28.6047 11.6666 28.8889 11.6666C29.1732 11.6666 29.4575 11.5852 29.6745 11.4225C30.0155 11.1668 30.578 10.7868 31.2425 10.3833C31.5268 10.7742 31.818 11.185 32.1145 11.6167C31.5197 11.6591 31.1212 11.6666 31.1089 11.6666C30.4969 11.6683 30 12.041 30 12.5016C30.0021 12.9606 30.4969 13.3334 31.1111 13.3334C31.1896 13.3334 32.0027 13.3238 33.1586 13.2034C35.5113 16.9131 37.7777 21.5799 37.7777 25.8333Z" fill="black"/>
<path d="M20 13.333C11.4237 13.333 4.44458 18.5674 4.44458 24.9997C4.44458 31.432 11.4237 36.6664 20 36.6664C28.5764 36.6664 35.5555 31.432 35.5555 24.9997C35.5555 18.5674 28.5764 13.333 20 13.333ZM20 34.9997C12.6477 34.9997 6.66676 30.514 6.66676 24.9997C6.66676 19.4854 12.6477 14.9997 20 14.9997C27.3524 14.9997 33.3333 19.4854 33.3333 24.9997C33.3333 30.514 27.3524 34.9997 20 34.9997Z" fill="black"/>
<path d="M14.4445 9.99987C15.6706 9.99987 16.6666 9.25276 16.6666 8.33323C16.6666 7.8726 16.1697 7.49987 15.5555 7.49987C15.5555 7.03924 15.0585 6.6665 14.4443 6.6665C13.2182 6.6665 12.2222 7.41362 12.2222 8.33315C12.2222 9.25284 13.2183 9.99987 14.4445 9.99987Z" fill="black"/>
<path d="M25.5554 9.99987C26.7816 9.99987 27.7776 9.25276 27.7776 8.33323C27.7777 7.8726 27.2807 7.49987 26.6666 7.49987C26.6666 7.03924 26.1696 6.6665 25.5554 6.6665C24.3293 6.6665 23.3333 7.41362 23.3333 8.33315C23.3333 9.25284 24.3294 9.99987 25.5554 9.99987Z" fill="black"/>
<path d="M19.2144 11.4224C19.4313 11.5851 19.7157 11.6665 20 11.6665C20.2843 11.6665 20.5685 11.5851 20.7856 11.4224L21.8968 10.589C22.2136 10.3514 22.309 9.99166 22.1377 9.6808C21.9662 9.36994 21.5604 9.1665 21.1112 9.1665H18.8891C18.4398 9.1665 18.0341 9.36994 17.8626 9.6808C17.6911 9.99166 17.7867 10.3514 18.1035 10.589L19.2144 11.4224Z" fill="black"/>
<path d="M22.7192 19.2543L20.497 18.4209C20.1845 18.3037 19.8155 18.3037 19.503 18.4209L17.2809 19.2543C16.7318 19.461 16.5104 19.9607 16.7839 20.3725C17.0595 20.7826 17.7236 20.9519 18.2748 20.7452L20 20.0974L21.7253 20.7452C21.8859 20.8054 22.0552 20.8331 22.2223 20.8331C22.6281 20.8331 23.0209 20.6638 23.2163 20.3725C23.4896 19.9607 23.2682 19.461 22.7192 19.2543Z" fill="black"/>
<path d="M14.9415 21.7543L12.7193 20.9209C12.4068 20.8037 12.0378 20.8037 11.7253 20.9209L9.50314 21.7543C8.95408 21.961 8.73273 22.4607 9.00617 22.8725C9.28179 23.2826 9.94585 23.4519 10.4971 23.2452L12.2224 22.5974L13.9477 23.2452C14.1083 23.3054 14.2776 23.3331 14.4447 23.3331C14.8505 23.3331 15.2433 23.1638 15.4386 22.8725C15.7118 22.4607 15.4904 21.961 14.9415 21.7543Z" fill="black"/>
<path d="M27.2809 20.9209L25.0587 21.7543C24.5096 21.961 24.2883 22.4607 24.5617 22.8725C24.8373 23.2826 25.5036 23.4519 26.0526 23.2452L27.778 22.5974L29.5033 23.2452C29.6639 23.3054 29.8332 23.3331 30.0002 23.3331C30.4061 23.3331 30.7989 23.1638 30.9942 22.8725C31.2676 22.4607 31.0463 21.961 30.4972 21.7543L28.275 20.9209C27.9623 20.8037 27.5934 20.8037 27.2809 20.9209Z" fill="black"/>
</svg>
